<?xml version="1.0" encoding="utf-8" standalone="no"?>
<!DOCTYPE svg PUBLIC "-//W3C//DTD SVG 1.1//EN"
  "http://www.w3.org/Graphics/SVG/1.1/DTD/svg11.dtd">
<svg xmlns:xlink="http://www.w3.org/1999/xlink" width="720pt" height="504pt" viewBox="0 0 720 504" xmlns="http://www.w3.org/2000/svg" version="1.1">
 <metadata>
  <rdf:RDF xmlns:dc="http://purl.org/dc/elements/1.1/" xmlns:cc="http://creativecommons.org/ns#" xmlns:rdf="http://www.w3.org/1999/02/22-rdf-syntax-ns#">
   <cc:Work>
    <dc:type rdf:resource="http://purl.org/dc/dcmitype/StillImage"/>
    <dc:date>2026-09-26T00:32:03.681074</dc:date>
    <dc:format>image/svg+xml</dc:format>
    <dc:creator>
     <cc:Agent>
      <dc:title>Matplotlib v3.11.0, https://matplotlib.org/</dc:title>
     </cc:Agent>
    </dc:creator>
   </cc:Work>
  </rdf:RDF>
 </metadata>
 <defs>
  <style type="text/css">*{stroke-linejoin: round; stroke-linecap: butt}</style>
 </defs>
 <g id="figure_1">
  <g id="patch_1">
   <path d="M 0 504
L 720 504
L 720 0
L 0 0
z
" style="fill: #fbfcfa"/>
  </g>
  <g id="axes_1">
   <g id="patch_2">
    <path d="M 32.4 270.963494
L 640.8 270.963494
L 640.8 100.8
L 32.4 100.8
z
" style="fill: #fbfcfa"/>
   </g>
   <g id="matplotlib.axis_1">
    <g id="xtick_1">
     <g id="line2d_1"/>
    </g>
    <g id="xtick_2">
     <g id="line2d_2"/>
    </g>
    <g id="xtick_3">
     <g id="line2d_3"/>
    </g>
    <g id="xtick_4">
     <g id="line2d_4"/>
    </g>
    <g id="xtick_5">
     <g id="line2d_5"/>
    </g>
   </g>
   <g id="matplotlib.axis_2">
    <g id="ytick_1">
     <g id="line2d_6">
      <path d="M 32.4 250.543875
L 640.8 250.543875
" clip-path="url(#p899e09d425)" style="fill: none; stroke: #e7ece7; stroke-width: 0.85; stroke-linecap: square"/>
     </g>
     <g id="line2d_7"/>
     <g id="text_1">
      <text style="font-size: 15px; font-family: 'Microsoft YaHei'; text-anchor: start; fill: #7a867f" x="649.8" y="256.633962" transform="rotate(-0 649.8 256.633962)">750</text>
     </g>
    </g>
    <g id="ytick_2">
     <g id="line2d_8">
      <path d="M 32.4 182.478477
L 640.8 182.478477
" clip-path="url(#p899e09d425)" style="fill: none; stroke: #e7ece7; stroke-width: 0.85; stroke-linecap: square"/>
     </g>
     <g id="line2d_9"/>
     <g id="text_2">
      <text style="font-size: 15px; font-family: 'Microsoft YaHei'; text-anchor: start; fill: #7a867f" x="649.8" y="188.568565" transform="rotate(-0 649.8 188.568565)">755</text>
     </g>
    </g>
    <g id="ytick_3">
     <g id="line2d_10">
      <path d="M 32.4 114.41308
L 640.8 114.41308
" clip-path="url(#p899e09d425)" style="fill: none; stroke: #e7ece7; stroke-width: 0.85; stroke-linecap: square"/>
     </g>
     <g id="line2d_11"/>
     <g id="text_3">
      <text style="font-size: 15px; font-family: 'Microsoft YaHei'; text-anchor: start; fill: #7a867f" x="649.8" y="120.503167" transform="rotate(-0 649.8 120.503167)">760</text>
     </g>
    </g>
   </g>
   <g id="FillBetweenPolyCollection_1">
    <defs>
     <path id="me6c67d9259" d="M 40.101266 -264.074726
L 40.101266 -258.901413
L 47.802532 -263.197368
L 55.503797 -264.85211
L 63.205063 -267.264122
L 70.906329 -270.251846
L 78.607595 -273.414877
L 86.308861 -275.636384
L 94.010127 -277.2258
L 101.711392 -279.441801
L 109.412658 -281.543345
L 117.113924 -284.084153
L 124.81519 -286.438152
L 132.516456 -288.284982
L 140.217722 -289.626351
L 147.918987 -291.199977
L 155.620253 -292.232405
L 163.321519 -293.543738
L 171.022785 -294.605418
L 178.724051 -295.970704
L 186.425316 -296.582213
L 194.126582 -297.327809
L 201.827848 -298.198069
L 209.529114 -299.049694
L 217.23038 -299.982728
L 224.931646 -300.666627
L 232.632911 -302.739908
L 240.334177 -303.270033
L 248.035443 -304.179826
L 255.736709 -304.61955
L 263.437975 -305.121229
L 271.139241 -305.497851
L 278.840506 -306.143014
L 286.541772 -306.579686
L 294.243038 -307.284085
L 301.944304 -307.603348
L 309.64557 -308.15874
L 317.346835 -309.027023
L 325.048101 -309.470064
L 332.749367 -309.875286
L 340.450633 -310.274367
L 348.151899 -310.682056
L 355.853165 -310.947837
L 363.55443 -311.327794
L 371.255696 -311.759861
L 378.956962 -312.057406
L 386.658228 -312.457346
L 394.359494 -312.886045
L 402.060759 -313.364599
L 409.762025 -313.837489
L 417.463291 -314.393716
L 425.164557 -314.615569
L 432.865823 -315.307882
L 440.567089 -317.565277
L 448.268354 -318.143073
L 455.96962 -318.860502
L 463.670886 -319.616705
L 471.372152 -320.206527
L 479.073418 -320.745558
L 486.774684 -321.107916
L 494.475949 -321.497286
L 502.177215 -322.047176
L 509.878481 -322.559344
L 517.579747 -322.946187
L 525.281013 -323.497814
L 532.982278 -323.879298
L 540.683544 -324.206009
L 548.38481 -324.654246
L 556.086076 -325.038582
L 563.787342 -325.396809
L 571.488608 -325.834923
L 579.189873 -326.239147
L 586.891139 -326.7096
L 594.592405 -327.366623
L 602.293671 -328.039052
L 609.994937 -328.799639
L 617.696203 -329.608408
L 625.397468 -330.648919
L 633.098734 -332.347928
L 633.098734 -357.868213
L 633.098734 -357.868213
L 625.397468 -359.366283
L 617.696203 -364.266792
L 609.994937 -363.313777
L 602.293671 -362.360761
L 594.592405 -366.998714
L 586.891139 -366.989574
L 579.189873 -368.00989
L 571.488608 -366.989574
L 563.787342 -364.811016
L 556.086076 -364.94728
L 548.38481 -369.167301
L 540.683544 -361.475878
L 532.982278 -363.45004
L 525.281013 -363.789869
L 517.579747 -363.518172
L 509.878481 -357.868213
L 502.177215 -355.690485
L 494.475949 -356.507237
L 486.774684 -361.680274
L 479.073418 -361.816537
L 471.372152 -362.497025
L 463.670886 -366.512651
L 455.96962 -364.266792
L 448.268354 -357.529215
L 440.567089 -356.915197
L 432.865823 -354.73747
L 425.164557 -353.240231
L 417.463291 -351.606728
L 409.762025 -353.580059
L 402.060759 -349.905093
L 394.359494 -348.27159
L 386.658228 -345.61694
L 378.956962 -342.077406
L 371.255696 -338.06178
L 363.55443 -337.993648
L 355.853165 -338.129081
L 348.151899 -335.81509
L 340.450633 -339.354624
L 332.749367 -341.532351
L 325.048101 -339.082096
L 317.346835 -341.056259
L 309.64557 -342.894157
L 301.944304 -338.674136
L 294.243038 -338.333477
L 286.541772 -334.998339
L 278.840506 -335.530931
L 271.139241 -335.134602
L 263.437975 -334.522247
L 255.736709 -337.584857
L 248.035443 -335.40713
L 240.334177 -330.234924
L 232.632911 -329.144814
L 224.931646 -325.605281
L 217.23038 -323.018762
L 209.529114 -329.417342
L 201.827848 -326.830823
L 194.126582 -322.270143
L 186.425316 -320.841035
L 178.724051 -324.788529
L 171.022785 -326.559958
L 163.321519 -320.432244
L 155.620253 -319.751756
L 147.918987 -320.160547
L 140.217722 -318.730609
L 132.516456 -314.851247
L 124.81519 -314.714983
L 117.113924 -316.346825
L 109.412658 -310.395257
L 101.711392 -306.547468
L 94.010127 -302.191183
L 86.308861 -299.876361
L 78.607595 -302.462879
L 70.906329 -291.028358
L 63.205063 -279.456742
L 55.503797 -274.965024
L 47.802532 -276.870223
L 40.101266 -264.074726
z
" style="stroke: #247f67; stroke-opacity: 0.045"/>
    </defs>
    <g clip-path="url(#p899e09d425)">
     <use xlink:href="#me6c67d9259" x="0" y="504" style="fill: #247f67; fill-opacity: 0.045; stroke: #247f67; stroke-opacity: 0.045"/>
    </g>
   </g>
   <g id="line2d_12">
    <path d="M 40.101266 239.925274
L 47.802532 227.129777
L 55.503797 229.034976
L 63.205063 224.543258
L 70.906329 212.971642
L 78.607595 201.537121
L 86.308861 204.123639
L 94.010127 201.808817
L 101.711392 197.452532
L 109.412658 193.604743
L 117.113924 187.653175
L 124.81519 189.285017
L 132.516456 189.148753
L 140.217722 185.269391
L 147.918987 183.839453
L 155.620253 184.248244
L 163.321519 183.567756
L 171.022785 177.440042
L 178.724051 179.211471
L 186.425316 183.158965
L 194.126582 181.729857
L 201.827848 177.169177
L 209.529114 174.582658
L 217.23038 180.981238
L 224.931646 178.394719
L 232.632911 174.855186
L 240.334177 173.765076
L 248.035443 168.59287
L 255.736709 166.415143
L 263.437975 169.477753
L 271.139241 168.865398
L 278.840506 168.469069
L 286.541772 169.001661
L 294.243038 165.666523
L 301.944304 165.325864
L 309.64557 161.105843
L 317.346835 162.943741
L 325.048101 164.917904
L 332.749367 162.467649
L 340.450633 164.645376
L 348.151899 168.18491
L 355.853165 165.870919
L 363.55443 166.006352
L 371.255696 165.93822
L 378.956962 161.922594
L 386.658228 158.38306
L 394.359494 155.72841
L 402.060759 154.094907
L 409.762025 150.419941
L 417.463291 152.393272
L 425.164557 150.759769
L 432.865823 149.26253
L 440.567089 147.084803
L 448.268354 146.470785
L 455.96962 139.733208
L 463.670886 137.487349
L 471.372152 141.502975
L 479.073418 142.183463
L 486.774684 142.319726
L 494.475949 147.492763
L 502.177215 148.309515
L 509.878481 146.131787
L 517.579747 140.481828
L 525.281013 140.210131
L 532.982278 140.54996
L 540.683544 142.524122
L 548.38481 134.832699
L 556.086076 139.05272
L 563.787342 139.188984
L 571.488608 137.010426
L 579.189873 135.99011
L 586.891139 137.010426
L 594.592405 137.001286
L 602.293671 141.639239
L 609.994937 140.686223
L 617.696203 139.733208
L 625.397468 144.633717
L 633.098734 146.131787
" clip-path="url(#p899e09d425)" style="fill: none; stroke: #247f67; stroke-width: 1.9; stroke-linecap: square"/>
   </g>
   <g id="line2d_13">
    <path d="M 40.101266 245.098587
L 47.802532 240.802632
L 55.503797 239.14789
L 63.205063 236.735878
L 70.906329 233.748154
L 78.607595 230.585123
L 86.308861 228.363616
L 94.010127 226.7742
L 101.711392 224.558199
L 109.412658 222.456655
L 117.113924 219.915847
L 124.81519 217.561848
L 132.516456 215.715018
L 140.217722 214.373649
L 147.918987 212.800023
L 155.620253 211.767595
L 163.321519 210.456262
L 171.022785 209.394582
L 178.724051 208.029296
L 186.425316 207.417787
L 194.126582 206.672191
L 201.827848 205.801931
L 209.529114 204.950306
L 217.23038 204.017272
L 224.931646 203.333373
L 232.632911 201.260092
L 240.334177 200.729967
L 248.035443 199.820174
L 255.736709 199.38045
L 263.437975 198.878771
L 271.139241 198.502149
L 278.840506 197.856986
L 286.541772 197.420314
L 294.243038 196.715915
L 301.944304 196.396652
L 309.64557 195.84126
L 317.346835 194.972977
L 325.048101 194.529936
L 332.749367 194.124714
L 340.450633 193.725633
L 348.151899 193.317944
L 355.853165 193.052163
L 363.55443 192.672206
L 371.255696 192.240139
L 378.956962 191.942594
L 386.658228 191.542654
L 394.359494 191.113955
L 402.060759 190.635401
L 409.762025 190.162511
L 417.463291 189.606284
L 425.164557 189.384431
L 432.865823 188.692118
L 440.567089 186.434723
L 448.268354 185.856927
L 455.96962 185.139498
L 463.670886 184.383295
L 471.372152 183.793473
L 479.073418 183.254442
L 486.774684 182.892084
L 494.475949 182.502714
L 502.177215 181.952824
L 509.878481 181.440656
L 517.579747 181.053813
L 525.281013 180.502186
L 532.982278 180.120702
L 540.683544 179.793991
L 548.38481 179.345754
L 556.086076 178.961418
L 563.787342 178.603191
L 571.488608 178.165077
L 579.189873 177.760853
L 586.891139 177.2904
L 594.592405 176.633377
L 602.293671 175.960948
L 609.994937 175.200361
L 617.696203 174.391592
L 625.397468 173.351081
L 633.098734 171.652072
" clip-path="url(#p899e09d425)" style="fill: none; stroke: #c49447; stroke-width: 2.1; stroke-linecap: square"/>
   </g>
   <g id="line2d_14">
    <path d="M 271.139241 168.865398
L 271.139241 198.502149
" clip-path="url(#p899e09d425)" style="fill: none; stroke: #537da4; stroke-width: 1.3; stroke-linecap: square"/>
   </g>
   <g id="line2d_15">
    <path d="M 271.139241 270.963494
L 271.139241 100.8
" clip-path="url(#p899e09d425)" style="fill: none; stroke-dasharray: 1.6,3.2; stroke-dashoffset: 0; stroke: #b6c2b9; stroke-width: 0.8"/>
   </g>
   <g id="legend_1">
    <g id="line2d_16">
     <path d="M 38 113.222812
L 52 113.222812
L 66 113.222812
" style="fill: none; stroke: #247f67; stroke-width: 1.9; stroke-linecap: square"/>
    </g>
    <g id="text_4">
     <text style="font-size: 14px; font-family: 'Microsoft YaHei'; text-anchor: start; fill: #253b32" x="77.2" y="118.122812" transform="rotate(-0 77.2 118.122812)">五分钟收盘价</text>
    </g>
    <g id="line2d_17">
     <path d="M 189.2 113.222812
L 203.2 113.222812
L 217.2 113.222812
" style="fill: none; stroke: #c49447; stroke-width: 2.1; stroke-linecap: square"/>
    </g>
    <g id="text_5">
     <text style="font-size: 14px; font-family: 'Microsoft YaHei'; text-anchor: start; fill: #253b32" x="228.4" y="118.122812" transform="rotate(-0 228.4 118.122812)">VWAP</text>
    </g>
   </g>
   <g id="patch_3">
    <path d="M 271.139241 153.907615
Q 271.139241 160.387738 271.139241 166.867862
" style="fill: none; stroke: #537da4; stroke-width: 1.1; stroke-linecap: round"/>
   </g>
   <g id="text_6">
    <g id="patch_4">
     <path d="M 271.139241 151.910691
C 273.803283 151.910691 276.358573 150.852255 278.242335 148.968492
C 280.126098 147.08473 281.184533 144.52944 281.184533 141.865398
C 281.184533 139.201355 280.126098 136.646066 278.242335 134.762303
C 276.358573 132.87854 273.803283 131.820105 271.139241 131.820105
C 268.475198 131.820105 265.919908 132.87854 264.036146 134.762303
C 262.152383 136.646066 261.093948 139.201355 261.093948 141.865398
C 261.093948 144.52944 262.152383 147.08473 264.036146 148.968492
C 265.919908 150.852255 268.475198 151.910691 271.139241 151.910691
z
" style="fill: #537da4"/>
    </g>
    <text style="font-weight: 700; font-size: 13px; font-family: 'Microsoft YaHei'; text-anchor: middle; fill: #ffffff" x="271.139241" y="145.496257" transform="rotate(-0 271.139241 145.496257)">1</text>
   </g>
  </g>
  <g id="axes_2">
   <g id="patch_5">
    <path d="M 32.4 438.48
L 640.8 438.48
L 640.8 312.432968
L 32.4 312.432968
z
" style="fill: #fbfcfa"/>
   </g>
   <g id="matplotlib.axis_3">
    <g id="xtick_6">
     <g id="line2d_18"/>
     <g id="text_7">
      <text style="font-size: 15px; font-family: 'Microsoft YaHei'; text-anchor: middle; fill: #7a867f" x="32.4" y="459.660176" transform="rotate(-0 32.4 459.660176)">09:30</text>
     </g>
    </g>
    <g id="xtick_7">
     <g id="line2d_19"/>
     <g id="text_8">
      <text style="font-size: 15px; font-family: 'Microsoft YaHei'; text-anchor: middle; fill: #7a867f" x="171.022785" y="459.660176" transform="rotate(-0 171.022785 459.660176)">11:00</text>
     </g>
    </g>
    <g id="xtick_8">
     <g id="line2d_20"/>
     <g id="text_9">
      <text style="font-size: 15px; font-family: 'Microsoft YaHei'; text-anchor: middle; fill: #7a867f" x="271.139241" y="459.660176" transform="rotate(-0 271.139241 459.660176)">12:05</text>
     </g>
    </g>
    <g id="xtick_9">
     <g id="line2d_21"/>
     <g id="text_10">
      <text style="font-size: 15px; font-family: 'Microsoft YaHei'; text-anchor: middle; fill: #7a867f" x="448.268354" y="459.660176" transform="rotate(-0 448.268354 459.660176)">14:00</text>
     </g>
    </g>
    <g id="xtick_10">
     <g id="line2d_22"/>
     <g id="text_11">
      <text style="font-size: 15px; font-family: 'Microsoft YaHei'; text-anchor: middle; fill: #7a867f" x="633.098734" y="459.660176" transform="rotate(-0 633.098734 459.660176)">16:00</text>
     </g>
    </g>
   </g>
   <g id="matplotlib.axis_4">
    <g id="ytick_4">
     <g id="line2d_23">
      <path d="M 32.4 438.48
L 640.8 438.48
" clip-path="url(#peaf4d8cf5f)" style="fill: none; stroke: #e7ece7; stroke-width: 0.85; stroke-linecap: square"/>
     </g>
     <g id="line2d_24"/>
     <g id="text_12">
      <text style="font-size: 15px; font-family: 'Microsoft YaHei'; text-anchor: start; fill: #7a867f" x="649.8" y="444.570088" transform="rotate(-0 649.8 444.570088)">0</text>
     </g>
    </g>
    <g id="ytick_5">
     <g id="line2d_25">
      <path d="M 32.4 400.92744
L 640.8 400.92744
" clip-path="url(#peaf4d8cf5f)" style="fill: none; stroke: #e7ece7; stroke-width: 0.85; stroke-linecap: square"/>
     </g>
     <g id="line2d_26"/>
     <g id="text_13">
      <text style="font-size: 15px; font-family: 'Microsoft YaHei'; text-anchor: start; fill: #7a867f" x="649.8" y="407.017528" transform="rotate(-0 649.8 407.017528)">1</text>
     </g>
    </g>
    <g id="ytick_6">
     <g id="line2d_27">
      <path d="M 32.4 363.374881
L 640.8 363.374881
" clip-path="url(#peaf4d8cf5f)" style="fill: none; stroke: #e7ece7; stroke-width: 0.85; stroke-linecap: square"/>
     </g>
     <g id="line2d_28"/>
     <g id="text_14">
      <text style="font-size: 15px; font-family: 'Microsoft YaHei'; text-anchor: start; fill: #7a867f" x="649.8" y="369.464969" transform="rotate(-0 649.8 369.464969)">2</text>
     </g>
    </g>
    <g id="ytick_7">
     <g id="line2d_29">
      <path d="M 32.4 325.822321
L 640.8 325.822321
" clip-path="url(#peaf4d8cf5f)" style="fill: none; stroke: #e7ece7; stroke-width: 0.85; stroke-linecap: square"/>
     </g>
     <g id="line2d_30"/>
     <g id="text_15">
      <text style="font-size: 15px; font-family: 'Microsoft YaHei'; text-anchor: start; fill: #7a867f" x="649.8" y="331.912409" transform="rotate(-0 649.8 331.912409)">3</text>
     </g>
    </g>
   </g>
   <g id="patch_6">
    <path d="M 37.405823 438.48
L 42.796709 438.48
L 42.796709 332.803718
L 37.405823 332.803718
z
" clip-path="url(#peaf4d8cf5f)" style="fill: #247f67; opacity: 0.5"/>
   </g>
   <g id="patch_7">
    <path d="M 45.107089 438.48
L 50.497975 438.48
L 50.497975 394.078492
L 45.107089 394.078492
z
" clip-path="url(#peaf4d8cf5f)" style="fill: #247f67; opacity: 0.5"/>
   </g>
   <g id="patch_8">
    <path d="M 52.808354 438.48
L 58.199241 438.48
L 58.199241 409.191632
L 52.808354 409.191632
z
" clip-path="url(#peaf4d8cf5f)" style="fill: #c2796d; opacity: 0.5"/>
   </g>
   <g id="patch_9">
    <path d="M 60.50962 438.48
L 65.900506 438.48
L 65.900506 401.338979
L 60.50962 401.338979
z
" clip-path="url(#peaf4d8cf5f)" style="fill: #247f67; opacity: 0.5"/>
   </g>
   <g id="patch_10">
    <path d="M 68.210886 438.48
L 73.601772 438.48
L 73.601772 398.976397
L 68.210886 398.976397
z
" clip-path="url(#peaf4d8cf5f)" style="fill: #247f67; opacity: 0.5"/>
   </g>
   <g id="patch_11">
    <path d="M 75.912152 438.48
L 81.303038 438.48
L 81.303038 405.976457
L 75.912152 405.976457
z
" clip-path="url(#peaf4d8cf5f)" style="fill: #247f67; opacity: 0.5"/>
   </g>
   <g id="patch_12">
    <path d="M 83.613418 438.48
L 89.004304 438.48
L 89.004304 412.667197
L 83.613418 412.667197
z
" clip-path="url(#peaf4d8cf5f)" style="fill: #c2796d; opacity: 0.5"/>
   </g>
   <g id="patch_13">
    <path d="M 91.314684 438.48
L 96.70557 438.48
L 96.70557 417.108726
L 91.314684 417.108726
z
" clip-path="url(#peaf4d8cf5f)" style="fill: #247f67; opacity: 0.5"/>
   </g>
   <g id="patch_14">
    <path d="M 99.015949 438.48
L 104.406835 438.48
L 104.406835 410.084181
L 99.015949 410.084181
z
" clip-path="url(#peaf4d8cf5f)" style="fill: #247f67; opacity: 0.5"/>
   </g>
   <g id="patch_15">
    <path d="M 106.717215 438.48
L 112.108101 438.48
L 112.108101 411.979084
L 106.717215 411.979084
z
" clip-path="url(#peaf4d8cf5f)" style="fill: #247f67; opacity: 0.5"/>
   </g>
   <g id="patch_16">
    <path d="M 114.418481 438.48
L 119.809367 438.48
L 119.809367 406.365239
L 114.418481 406.365239
z
" clip-path="url(#peaf4d8cf5f)" style="fill: #247f67; opacity: 0.5"/>
   </g>
   <g id="patch_17">
    <path d="M 122.119747 438.48
L 127.510633 438.48
L 127.510633 404.020157
L 122.119747 404.020157
z
" clip-path="url(#peaf4d8cf5f)" style="fill: #c2796d; opacity: 0.5"/>
   </g>
   <g id="patch_18">
    <path d="M 129.821013 438.48
L 135.211899 438.48
L 135.211899 406.313904
L 129.821013 406.313904
z
" clip-path="url(#peaf4d8cf5f)" style="fill: #247f67; opacity: 0.5"/>
   </g>
   <g id="patch_19">
    <path d="M 137.522278 438.48
L 142.913165 438.48
L 142.913165 415.107925
L 137.522278 415.107925
z
" clip-path="url(#peaf4d8cf5f)" style="fill: #247f67; opacity: 0.5"/>
   </g>
   <g id="patch_20">
    <path d="M 145.223544 438.48
L 150.61443 438.48
L 150.61443 411.113873
L 145.223544 411.113873
z
" clip-path="url(#peaf4d8cf5f)" style="fill: #247f67; opacity: 0.5"/>
   </g>
   <g id="patch_21">
    <path d="M 152.92481 438.48
L 158.315696 438.48
L 158.315696 417.964811
L 152.92481 417.964811
z
" clip-path="url(#peaf4d8cf5f)" style="fill: #c2796d; opacity: 0.5"/>
   </g>
   <g id="patch_22">
    <path d="M 160.626076 438.48
L 166.016962 438.48
L 166.016962 411.661164
L 160.626076 411.661164
z
" clip-path="url(#peaf4d8cf5f)" style="fill: #247f67; opacity: 0.5"/>
   </g>
   <g id="patch_23">
    <path d="M 168.327342 438.48
L 173.718228 438.48
L 173.718228 417.72654
L 168.327342 417.72654
z
" clip-path="url(#peaf4d8cf5f)" style="fill: #247f67; opacity: 0.5"/>
   </g>
   <g id="patch_24">
    <path d="M 176.028608 438.48
L 181.419494 438.48
L 181.419494 409.870132
L 176.028608 409.870132
z
" clip-path="url(#peaf4d8cf5f)" style="fill: #c2796d; opacity: 0.5"/>
   </g>
   <g id="patch_25">
    <path d="M 183.729873 438.48
L 189.120759 438.48
L 189.120759 422.837932
L 183.729873 422.837932
z
" clip-path="url(#peaf4d8cf5f)" style="fill: #c2796d; opacity: 0.5"/>
   </g>
   <g id="patch_26">
    <path d="M 191.431139 438.48
L 196.822025 438.48
L 196.822025 418.317317
L 191.431139 418.317317
z
" clip-path="url(#peaf4d8cf5f)" style="fill: #247f67; opacity: 0.5"/>
   </g>
   <g id="patch_27">
    <path d="M 199.132405 438.48
L 204.523291 438.48
L 204.523291 416.90966
L 199.132405 416.90966
z
" clip-path="url(#peaf4d8cf5f)" style="fill: #247f67; opacity: 0.5"/>
   </g>
   <g id="patch_28">
    <path d="M 206.833671 438.48
L 212.224557 438.48
L 212.224557 418.748045
L 206.833671 418.748045
z
" clip-path="url(#peaf4d8cf5f)" style="fill: #247f67; opacity: 0.5"/>
   </g>
   <g id="patch_29">
    <path d="M 214.534937 438.48
L 219.925823 438.48
L 219.925823 412.15836
L 214.534937 412.15836
z
" clip-path="url(#peaf4d8cf5f)" style="fill: #c2796d; opacity: 0.5"/>
   </g>
   <g id="patch_30">
    <path d="M 222.236203 438.48
L 227.627089 438.48
L 227.627089 417.976152
L 222.236203 417.976152
z
" clip-path="url(#peaf4d8cf5f)" style="fill: #247f67; opacity: 0.5"/>
   </g>
   <g id="patch_31">
    <path d="M 229.937468 438.48
L 235.328354 438.48
L 235.328354 375.503832
L 229.937468 375.503832
z
" clip-path="url(#peaf4d8cf5f)" style="fill: #247f67; opacity: 0.5"/>
   </g>
   <g id="patch_32">
    <path d="M 237.638734 438.48
L 243.02962 438.48
L 243.02962 422.501423
L 237.638734 422.501423
z
" clip-path="url(#peaf4d8cf5f)" style="fill: #247f67; opacity: 0.5"/>
   </g>
   <g id="patch_33">
    <path d="M 245.34 438.48
L 250.730886 438.48
L 250.730886 412.823904
L 245.34 412.823904
z
" clip-path="url(#peaf4d8cf5f)" style="fill: #247f67; opacity: 0.5"/>
   </g>
   <g id="patch_34">
    <path d="M 253.041266 438.48
L 258.432152 438.48
L 258.432152 426.644334
L 253.041266 426.644334
z
" clip-path="url(#peaf4d8cf5f)" style="fill: #247f67; opacity: 0.5"/>
   </g>
   <g id="patch_35">
    <path d="M 260.742532 438.48
L 266.133418 438.48
L 266.133418 423.743474
L 260.742532 423.743474
z
" clip-path="url(#peaf4d8cf5f)" style="fill: #c2796d; opacity: 0.5"/>
   </g>
   <g id="patch_36">
    <path d="M 268.443797 438.48
L 273.834684 438.48
L 273.834684 427.317051
L 268.443797 427.317051
z
" clip-path="url(#peaf4d8cf5f)" style="fill: #247f67; opacity: 0.5"/>
   </g>
   <g id="patch_37">
    <path d="M 276.145063 438.48
L 281.535949 438.48
L 281.535949 418.333991
L 276.145063 418.333991
z
" clip-path="url(#peaf4d8cf5f)" style="fill: #247f67; opacity: 0.5"/>
   </g>
   <g id="patch_38">
    <path d="M 283.846329 438.48
L 289.237215 438.48
L 289.237215 423.898679
L 283.846329 423.898679
z
" clip-path="url(#peaf4d8cf5f)" style="fill: #c2796d; opacity: 0.5"/>
   </g>
   <g id="patch_39">
    <path d="M 291.547595 438.48
L 296.938481 438.48
L 296.938481 416.432141
L 291.547595 416.432141
z
" clip-path="url(#peaf4d8cf5f)" style="fill: #247f67; opacity: 0.5"/>
   </g>
   <g id="patch_40">
    <path d="M 299.248861 438.48
L 304.639747 438.48
L 304.639747 428.388989
L 299.248861 428.388989
z
" clip-path="url(#peaf4d8cf5f)" style="fill: #247f67; opacity: 0.5"/>
   </g>
   <g id="patch_41">
    <path d="M 306.950127 438.48
L 312.341013 438.48
L 312.341013 422.206373
L 306.950127 422.206373
z
" clip-path="url(#peaf4d8cf5f)" style="fill: #247f67; opacity: 0.5"/>
   </g>
   <g id="patch_42">
    <path d="M 314.651392 438.48
L 320.042278 438.48
L 320.042278 412.014195
L 314.651392 412.014195
z
" clip-path="url(#peaf4d8cf5f)" style="fill: #c2796d; opacity: 0.5"/>
   </g>
   <g id="patch_43">
    <path d="M 322.352658 438.48
L 327.743544 438.48
L 327.743544 423.467313
L 322.352658 423.467313
z
" clip-path="url(#peaf4d8cf5f)" style="fill: #c2796d; opacity: 0.5"/>
   </g>
   <g id="patch_44">
    <path d="M 330.053924 438.48
L 335.44481 438.48
L 335.44481 424.927319
L 330.053924 424.927319
z
" clip-path="url(#peaf4d8cf5f)" style="fill: #247f67; opacity: 0.5"/>
   </g>
   <g id="patch_45">
    <path d="M 337.75519 438.48
L 343.146076 438.48
L 343.146076 424.581234
L 337.75519 424.581234
z
" clip-path="url(#peaf4d8cf5f)" style="fill: #c2796d; opacity: 0.5"/>
   </g>
   <g id="patch_46">
    <path d="M 345.456456 438.48
L 350.847342 438.48
L 350.847342 422.271977
L 345.456456 422.271977
z
" clip-path="url(#peaf4d8cf5f)" style="fill: #c2796d; opacity: 0.5"/>
   </g>
   <g id="patch_47">
    <path d="M 353.157722 438.48
L 358.548608 438.48
L 358.548608 427.871702
L 353.157722 427.871702
z
" clip-path="url(#peaf4d8cf5f)" style="fill: #247f67; opacity: 0.5"/>
   </g>
   <g id="patch_48">
    <path d="M 360.858987 438.48
L 366.249873 438.48
L 366.249873 422.82385
L 360.858987 422.82385
z
" clip-path="url(#peaf4d8cf5f)" style="fill: #c2796d; opacity: 0.5"/>
   </g>
   <g id="patch_49">
    <path d="M 368.560253 438.48
L 373.951139 438.48
L 373.951139 419.970343
L 368.560253 419.970343
z
" clip-path="url(#peaf4d8cf5f)" style="fill: #247f67; opacity: 0.5"/>
   </g>
   <g id="patch_50">
    <path d="M 376.261519 438.48
L 381.652405 438.48
L 381.652405 427.072809
L 376.261519 427.072809
z
" clip-path="url(#peaf4d8cf5f)" style="fill: #247f67; opacity: 0.5"/>
   </g>
   <g id="patch_51">
    <path d="M 383.962785 438.48
L 389.353671 438.48
L 389.353671 424.389228
L 383.962785 424.389228
z
" clip-path="url(#peaf4d8cf5f)" style="fill: #247f67; opacity: 0.5"/>
   </g>
   <g id="patch_52">
    <path d="M 391.664051 438.48
L 397.054937 438.48
L 397.054937 424.200677
L 391.664051 424.200677
z
" clip-path="url(#peaf4d8cf5f)" style="fill: #247f67; opacity: 0.5"/>
   </g>
   <g id="patch_53">
    <path d="M 399.365316 438.48
L 404.756203 438.48
L 404.756203 423.005717
L 399.365316 423.005717
z
" clip-path="url(#peaf4d8cf5f)" style="fill: #247f67; opacity: 0.5"/>
   </g>
   <g id="patch_54">
    <path d="M 407.066582 438.48
L 412.457468 438.48
L 412.457468 423.979417
L 407.066582 423.979417
z
" clip-path="url(#peaf4d8cf5f)" style="fill: #247f67; opacity: 0.5"/>
   </g>
   <g id="patch_55">
    <path d="M 414.767848 438.48
L 420.158734 438.48
L 420.158734 421.11472
L 414.767848 421.11472
z
" clip-path="url(#peaf4d8cf5f)" style="fill: #c2796d; opacity: 0.5"/>
   </g>
   <g id="patch_56">
    <path d="M 422.469114 438.48
L 427.86 438.48
L 427.86 431.436492
L 422.469114 431.436492
z
" clip-path="url(#peaf4d8cf5f)" style="fill: #247f67; opacity: 0.5"/>
   </g>
   <g id="patch_57">
    <path d="M 430.17038 438.48
L 435.561266 438.48
L 435.561266 417.131745
L 430.17038 417.131745
z
" clip-path="url(#peaf4d8cf5f)" style="fill: #247f67; opacity: 0.5"/>
   </g>
   <g id="patch_58">
    <path d="M 437.871646 438.48
L 443.262532 438.48
L 443.262532 366.413296
L 437.871646 366.413296
z
" clip-path="url(#peaf4d8cf5f)" style="fill: #247f67; opacity: 0.5"/>
   </g>
   <g id="patch_59">
    <path d="M 445.572911 438.48
L 450.963797 438.48
L 450.963797 419.464248
L 445.572911 419.464248
z
" clip-path="url(#peaf4d8cf5f)" style="fill: #247f67; opacity: 0.5"/>
   </g>
   <g id="patch_60">
    <path d="M 453.274177 438.48
L 458.665063 438.48
L 458.665063 416.481973
L 453.274177 416.481973
z
" clip-path="url(#peaf4d8cf5f)" style="fill: #247f67; opacity: 0.5"/>
   </g>
   <g id="patch_61">
    <path d="M 460.975443 438.48
L 466.366329 438.48
L 466.366329 416.34701
L 460.975443 416.34701
z
" clip-path="url(#peaf4d8cf5f)" style="fill: #247f67; opacity: 0.5"/>
   </g>
   <g id="patch_62">
    <path d="M 468.676709 438.48
L 474.067595 438.48
L 474.067595 419.765569
L 468.676709 419.765569
z
" clip-path="url(#peaf4d8cf5f)" style="fill: #c2796d; opacity: 0.5"/>
   </g>
   <g id="patch_63">
    <path d="M 476.377975 438.48
L 481.768861 438.48
L 481.768861 420.860189
L 476.377975 420.860189
z
" clip-path="url(#peaf4d8cf5f)" style="fill: #c2796d; opacity: 0.5"/>
   </g>
   <g id="patch_64">
    <path d="M 484.079241 438.48
L 489.470127 438.48
L 489.470127 426.045446
L 484.079241 426.045446
z
" clip-path="url(#peaf4d8cf5f)" style="fill: #c2796d; opacity: 0.5"/>
   </g>
   <g id="patch_65">
    <path d="M 491.780506 438.48
L 497.171392 438.48
L 497.171392 423.493637
L 491.780506 423.493637
z
" clip-path="url(#peaf4d8cf5f)" style="fill: #c2796d; opacity: 0.5"/>
   </g>
   <g id="patch_66">
    <path d="M 499.481772 438.48
L 504.872658 438.48
L 504.872658 415.530992
L 499.481772 415.530992
z
" clip-path="url(#peaf4d8cf5f)" style="fill: #c2796d; opacity: 0.5"/>
   </g>
   <g id="patch_67">
    <path d="M 507.183038 438.48
L 512.573924 438.48
L 512.573924 417.259725
L 507.183038 417.259725
z
" clip-path="url(#peaf4d8cf5f)" style="fill: #247f67; opacity: 0.5"/>
   </g>
   <g id="patch_68">
    <path d="M 514.884304 438.48
L 520.27519 438.48
L 520.27519 423.620865
L 514.884304 423.620865
z
" clip-path="url(#peaf4d8cf5f)" style="fill: #247f67; opacity: 0.5"/>
   </g>
   <g id="patch_69">
    <path d="M 522.58557 438.48
L 527.976456 438.48
L 527.976456 417.471183
L 522.58557 417.471183
z
" clip-path="url(#peaf4d8cf5f)" style="fill: #247f67; opacity: 0.5"/>
   </g>
   <g id="patch_70">
    <path d="M 530.286835 438.48
L 535.677722 438.48
L 535.677722 423.999695
L 530.286835 423.999695
z
" clip-path="url(#peaf4d8cf5f)" style="fill: #c2796d; opacity: 0.5"/>
   </g>
   <g id="patch_71">
    <path d="M 537.988101 438.48
L 543.378987 438.48
L 543.378987 425.551555
L 537.988101 425.551555
z
" clip-path="url(#peaf4d8cf5f)" style="fill: #c2796d; opacity: 0.5"/>
   </g>
   <g id="patch_72">
    <path d="M 545.689367 438.48
L 551.080253 438.48
L 551.080253 422.195633
L 545.689367 422.195633
z
" clip-path="url(#peaf4d8cf5f)" style="fill: #247f67; opacity: 0.5"/>
   </g>
   <g id="patch_73">
    <path d="M 553.390633 438.48
L 558.781519 438.48
L 558.781519 423.892858
L 553.390633 423.892858
z
" clip-path="url(#peaf4d8cf5f)" style="fill: #c2796d; opacity: 0.5"/>
   </g>
   <g id="patch_74">
    <path d="M 561.091899 438.48
L 566.482785 438.48
L 566.482785 424.438873
L 561.091899 424.438873
z
" clip-path="url(#peaf4d8cf5f)" style="fill: #c2796d; opacity: 0.5"/>
   </g>
   <g id="patch_75">
    <path d="M 568.793165 438.48
L 574.184051 438.48
L 574.184051 421.51642
L 568.793165 421.51642
z
" clip-path="url(#peaf4d8cf5f)" style="fill: #247f67; opacity: 0.5"/>
   </g>
   <g id="patch_76">
    <path d="M 576.49443 438.48
L 581.885316 438.48
L 581.885316 422.723584
L 576.49443 422.723584
z
" clip-path="url(#peaf4d8cf5f)" style="fill: #247f67; opacity: 0.5"/>
   </g>
   <g id="patch_77">
    <path d="M 584.195696 438.48
L 589.586582 438.48
L 589.586582 419.882057
L 584.195696 419.882057
z
" clip-path="url(#peaf4d8cf5f)" style="fill: #c2796d; opacity: 0.5"/>
   </g>
   <g id="patch_78">
    <path d="M 591.896962 438.48
L 597.287848 438.48
L 597.287848 411.475729
L 591.896962 411.475729
z
" clip-path="url(#peaf4d8cf5f)" style="fill: #c2796d; opacity: 0.5"/>
   </g>
   <g id="patch_79">
    <path d="M 599.598228 438.48
L 604.989114 438.48
L 604.989114 407.645068
L 599.598228 407.645068
z
" clip-path="url(#peaf4d8cf5f)" style="fill: #c2796d; opacity: 0.5"/>
   </g>
   <g id="patch_80">
    <path d="M 607.299494 438.48
L 612.69038 438.48
L 612.69038 400.618646
L 607.299494 400.618646
z
" clip-path="url(#peaf4d8cf5f)" style="fill: #247f67; opacity: 0.5"/>
   </g>
   <g id="patch_81">
    <path d="M 615.000759 438.48
L 620.391646 438.48
L 620.391646 397.574936
L 615.000759 397.574936
z
" clip-path="url(#peaf4d8cf5f)" style="fill: #247f67; opacity: 0.5"/>
   </g>
   <g id="patch_82">
    <path d="M 622.702025 438.48
L 628.092911 438.48
L 628.092911 378.926973
L 622.702025 378.926973
z
" clip-path="url(#peaf4d8cf5f)" style="fill: #c2796d; opacity: 0.5"/>
   </g>
   <g id="patch_83">
    <path d="M 630.403291 438.48
L 635.794177 438.48
L 635.794177 318.435207
L 630.403291 318.435207
z
" clip-path="url(#peaf4d8cf5f)" style="fill: #c2796d; opacity: 0.5"/>
   </g>
   <g id="line2d_31">
    <path d="M 271.139241 438.48
L 271.139241 312.432968
" clip-path="url(#peaf4d8cf5f)" style="fill: none; stroke-dasharray: 1.6,3.2; stroke-dashoffset: 0; stroke: #b6c2b9; stroke-width: 0.8"/>
   </g>
   <g id="text_16">
    <text style="font-size: 14px; font-family: 'Microsoft YaHei'; text-anchor: start; fill: #7a867f" x="38.484" y="331.705477" transform="rotate(-0 38.484 331.705477)">成交量 / 百万股</text>
   </g>
  </g>
  <g id="text_17">
   <text style="font-weight: 700; font-size: 25px; font-family: 'Microsoft YaHei'; text-anchor: start; fill: #253b32" x="32.4" y="44.492293" transform="rotate(-0 32.4 44.492293)">SPY</text>
  </g>
  <g id="text_18">
   <text style="font-size: 21px; font-family: 'Microsoft YaHei'; text-anchor: start; fill: #253b32" x="118.8" y="43.764246" transform="rotate(-0 118.8 43.764246)">VWAP</text>
  </g>
  <g id="text_19">
   <text style="font-size: 15px; font-family: 'Microsoft YaHei'; text-anchor: start; fill: #6c7a71" x="32.4" y="77.058094" transform="rotate(-0 32.4 77.058094)">五分钟线  ·  价格与当日累计成交均价</text>
  </g>
  <g id="text_20">
   <text style="font-size: 13px; font-family: 'Microsoft YaHei'; text-anchor: start; fill: #7a867f" x="32.4" y="491.4" transform="rotate(-0 32.4 491.4)">2026/08/03  ·  纽约时间  ·  ① 午间价格仍高于累计 VWAP</text>
  </g>
 </g>
 <defs>
  <clipPath id="p899e09d425">
   <rect x="32.4" y="100.8" width="608.4" height="170.163494"/>
  </clipPath>
  <clipPath id="peaf4d8cf5f">
   <rect x="32.4" y="312.432968" width="608.4" height="126.047032"/>
  </clipPath>
 </defs>
</svg>
